# xmcd CD database file
#
# Track frame offsets:
#	150
#	2144
#	24254
#	52669
#	104670
#	137368
#	160991
#	191176
#
# Disc length: 3063 seconds
#
# Revision: 1
# Processed by: cddbd v1.5.2PL0 Copyright (c) Steve Scherf et al.
# Submitted via: CDex 1.51
#
DISCID=5d0bf508
DTITLE=Jazz Warriors - Afropeans
DYEAR=2007
DGENRE=Jazz
TTITLE0=Intro - Roots
TTITLE1=Abolition day
TTITLE2=Remercier les travalleurs
TTITLE3=Blak flag
TTITLE4=Apunta un lapiz
TTITLE5=Crossing the sands
TTITLE6=Civilisation
TTITLE7=We are the Warriors
EXTD=YEAR: 2007
EXTT0=
EXTT1=
EXTT2=
EXTT3=
EXTT4=
EXTT5=
EXTT6=
EXTT7=
PLAYORDER=
